name processed_emg_signals
nRows=29
nColumns=7
 
endheader
time	LGLTMED	LRF	LADDLONG	LBF	LTA	LGM
0.0751999999999999	-0.0630166102099332	-0.023546772138221	0.0715116844870185	0.0738673587538237	0.0169353102008389	-0.0193974008821654
0.0851999999999999	-0.051609256772363	-0.0081110901338732	0.0864746842019976	0.0796165514345585	0.0287785358300034	-0.0098784099153381
0.0951999999999999	-0.0401722025557403	0.007320470128512	0.1014577525680595	0.0854303663354094	0.0406949765659261	-0.000312852681893
0.10519999999999988	-0.0287113319558289	0.0227390473330495	0.1164525748449728	0.0913057868316077	0.0526792882558096	0.0092946269793525
0.11519999999999989	-0.0172325423926588	0.038135791239489	0.1314508410280769	0.0972397281907869	0.0647260863343998	0.018939347495551
0.12519999999999987	-0.0057417369706965	0.0535018741786934	0.1464442577706329	0.103229041687221	0.0768299531416014	0.0286165950953673
0.13519999999999988	0.0057551827472421	0.0688285024537189	0.1614245602429622	0.1092705187657968	0.0889854452353077	0.0383216293333835
0.14519999999999986	0.0172523238289171	0.0841069276172903	0.1763835238955775	0.1153608952374205	0.1011871006787669	0.0480496885873828
0.15519999999999984	0.0287438089030621	0.0993284575978948	0.1913129760943187	0.1214968554884596	0.1134294462833454	0.0577959955134229
0.16519999999999985	0.0402237829119116	0.1144844676481594	0.2062048075964222	0.1276750366874806	0.1257070047888475	0.0675557624448021
0.17519999999999986	0.0516864196686402	0.1295664110907223	0.2210509838371052	0.1338920329734636	0.13801430196444	0.0773241967230021
0.18519999999999984	0.0631259282048965	0.1445658298388377	0.2358435559972309	0.1401443996105926	0.1503458736142453	0.0870965059511562
0.19519999999999982	0.0745365588958301	0.1594743646715974	0.2505746718235609	0.1464286570960521	0.1626962724729999	0.0968679031629182
0.20519999999999983	0.0859126093521404	0.174283765246357	0.2652365861738234	0.1527412952091007	0.1750600749784864	0.1066336119016384
0.2151999999999998	0.0972484300705157	0.1889858998332254	0.2798216712593764	0.1590787769923111	0.1874318879090892	0.1163888712055409
0.22519999999999982	0.1085384298355496	0.2035727647578717	0.2943224265591615	0.1654375426584783	0.199806354876262	0.1261289404955122
0.2351999999999998	0.1197770808678835	0.2180364935398244	0.3087314883801348	0.1718140134187633	0.2121781626632859	0.1358491043622722
0.24519999999999978	0.1309589237154131	0.2323693657139535	0.3230416390414503	0.1782045952286073	0.2245420474026356	0.1455446772500622
0.25519999999999976	0.142078571886339	0.2465638153239813	0.3372458156623125	0.1846056824481704	0.2368928005850872	0.1552110080343618
0.26519999999999977	0.1531307162244317	0.2606124390786912	0.3513371185358425	0.1910136614145188	0.2492252748939907	0.1648434844919224
0.2751999999999998	0.1641101290281632	0.2745080041637815	0.3653088190737331	0.1974249139234094	0.2615343898588049	0.1744375376624473
0.2851999999999998	0.1750116679163508	0.2882434557048462	0.3791543673084544	0.2038358206200629	0.2738151373227274	0.1839886461025487
0.2951999999999998	0.1858302794443947	0.3018119238790142	0.3928673989417279	0.210242764299687	0.2860625867200256	0.1934923400336719
0.30519999999999975	0.196561002476219	0.3152067306742641	0.4064417419293401	0.2166421331200034	0.2982718901593443	0.2029442053862239
0.3151999999999997	0.2071989713185683	0.3284213962965284	0.4198714225936171	0.2230303237290954	0.3104382873094142	0.2123398877422841
0.3251999999999997	0.2177394186249833	0.3414496452253071	0.4331506712560395	0.2294037443127411	0.3225571100835742	0.2216750961789856
0.3351999999999997	0.2281776780780312	0.354285411919315	0.446273927383372	0.2357588175659599	0.3346237871192616	0.2309456070145137
0.34519999999999973	0.2385091868593206	0.3669228461738446	0.4592358442417926	0.2420919835942017	0.3466338480482329	0.240147267458302
0.35519999999999974	0.2487294879183339	0.3793563181317968	0.4720312930540523	0.2483997027503352	0.3585829275528493	0.2492759991670071
